<svg width="30" height="9" viewBox="0 0 30 9" fill="none" xmlns="http://www.w3.org/2000/svg">
<path opacity="0.834352" fill-rule="evenodd" clip-rule="evenodd" d="M4.2852 8.93339C1.88131 8.93339 0 7.4186 0 5.06225C0 2.00678 2.3647 0 5.06908 0C7.19862 0 8.42669 1.13933 8.93622 2.44697L7.15942 3.04253C6.81974 2.1233 5.98361 1.63131 4.97763 1.63131C3.33148 1.63131 1.94663 3.04253 1.94663 4.94573C1.94663 6.29221 2.88729 7.30208 4.38972 7.30208C5.1344 7.30208 5.94441 6.91367 6.44087 6.30516L7.87798 7.26323C6.872 8.53203 5.42183 8.93339 4.2852 8.93339ZM12.0717 2.36914C12.9209 2.36914 13.6656 2.73166 14.0837 3.35311L14.2535 2.5245H15.9258L14.5279 8.77788H12.8556L13.0385 8.00106C12.5029 8.62251 11.9019 8.93324 11.1441 8.93324C9.72008 8.93324 8.74023 8.00106 8.74023 6.34385C8.74023 4.4536 9.92912 2.36914 12.0717 2.36914ZM12.333 3.83252C11.2486 3.83252 10.4778 4.85533 10.4778 6.00761C10.4778 6.90094 11.0788 7.47061 11.8757 7.47061C12.4636 7.47061 12.9862 7.14694 13.3259 6.71969L13.8093 4.55755C13.5349 4.1303 12.9993 3.83252 12.333 3.83252ZM18.9176 8.93324C20.6421 8.93324 21.6481 7.93633 21.6481 6.74521C21.6481 4.84201 18.4342 5.01032 18.4342 4.24645C18.4342 3.92277 18.7608 3.66383 19.3487 3.66383C20.1195 3.66383 20.9034 4.09108 21.2039 4.47949L22.0662 3.379C21.4652 2.7705 20.4592 2.36914 19.3879 2.36914C17.7026 2.36914 16.788 3.39195 16.788 4.47949C16.788 6.3568 20.0019 6.14965 20.0019 6.9912C20.0019 7.34077 19.6492 7.63855 19.0874 7.63855C18.1729 7.63855 17.2584 7.09477 16.8795 6.65458L15.9519 7.80686C16.6574 8.54483 17.7679 8.93324 18.9176 8.93324ZM28.3371 8.77819L29.2908 4.4798C29.317 4.35033 29.3562 4.0914 29.3562 3.96193C29.3562 2.99091 28.5984 2.36945 27.3834 2.36945C26.4558 2.36945 25.7764 2.86144 25.28 3.32753L25.9985 0.142578H24.3263L22.4058 8.77819H24.078L25.0056 4.57043C25.3714 4.20792 25.9202 3.83246 26.4819 3.83246C27.096 3.83246 27.5663 4.05255 27.5663 4.62222C27.5663 4.71285 27.5402 4.88116 27.514 4.98473L26.6779 8.77819H28.3371Z" fill="#4DA35C"/>
</svg>
