<svg width="430" height="10" viewBox="0 0 430 10" fill="none" xmlns="http://www.w3.org/2000/svg">
<mask id="mask0_2_2209" style="mask-type:alpha" maskUnits="userSpaceOnUse" x="0" y="0" width="430" height="10">
<rect width="430" height="10" rx="5" fill="#DDE2EE"/>
</mask>
<g mask="url(#mask0_2_2209)">
<rect width="430" height="10" rx="5" fill="#DDE2EE"/>
<line x1="-0.385965" y1="12.6821" x2="12.3282" y2="-2.75646" stroke="white"/>
<line x1="5.61403" y1="12.6821" x2="18.3282" y2="-2.75646" stroke="white"/>
<line x1="11.614" y1="12.6821" x2="24.3282" y2="-2.75646" stroke="white"/>
<line x1="17.614" y1="12.6821" x2="30.3282" y2="-2.75646" stroke="white"/>
<line x1="23.614" y1="12.6821" x2="36.3282" y2="-2.75646" stroke="white"/>
<line x1="29.614" y1="12.6821" x2="42.3282" y2="-2.75646" stroke="white"/>
<line x1="35.614" y1="12.6821" x2="48.3282" y2="-2.75646" stroke="white"/>
<line x1="41.614" y1="12.6821" x2="54.3282" y2="-2.75646" stroke="white"/>
<line x1="47.614" y1="12.6821" x2="60.3282" y2="-2.75646" stroke="white"/>
<line x1="53.614" y1="12.6821" x2="66.3282" y2="-2.75646" stroke="white"/>
<line x1="59.614" y1="12.6821" x2="72.3282" y2="-2.75646" stroke="white"/>
<line x1="65.614" y1="12.6821" x2="78.3282" y2="-2.75646" stroke="white"/>
<line x1="71.614" y1="12.6821" x2="84.3282" y2="-2.75646" stroke="white"/>
<line x1="77.614" y1="12.6821" x2="90.3282" y2="-2.75646" stroke="white"/>
<line x1="83.614" y1="12.6821" x2="96.3282" y2="-2.75646" stroke="white"/>
<line x1="89.614" y1="12.6821" x2="102.328" y2="-2.75646" stroke="white"/>
<line x1="95.614" y1="12.6821" x2="108.328" y2="-2.75646" stroke="white"/>
<line x1="101.614" y1="12.6821" x2="114.328" y2="-2.75646" stroke="white"/>
<line x1="107.614" y1="12.6821" x2="120.328" y2="-2.75646" stroke="white"/>
<line x1="113.614" y1="12.6821" x2="126.328" y2="-2.75646" stroke="white"/>
<line x1="119.614" y1="12.6821" x2="132.328" y2="-2.75646" stroke="white"/>
<line x1="125.614" y1="12.6821" x2="138.328" y2="-2.75646" stroke="white"/>
<line x1="131.614" y1="12.6821" x2="144.328" y2="-2.75646" stroke="white"/>
<line x1="137.614" y1="12.6821" x2="150.328" y2="-2.75646" stroke="white"/>
<line x1="143.614" y1="12.6821" x2="156.328" y2="-2.75646" stroke="white"/>
<line x1="149.614" y1="12.6821" x2="162.328" y2="-2.75646" stroke="white"/>
<line x1="155.614" y1="12.6821" x2="168.328" y2="-2.75646" stroke="white"/>
<line x1="161.614" y1="12.6821" x2="174.328" y2="-2.75646" stroke="white"/>
<line x1="167.614" y1="12.6821" x2="180.328" y2="-2.75646" stroke="white"/>
<line x1="173.614" y1="12.6821" x2="186.328" y2="-2.75646" stroke="white"/>
<line x1="179.614" y1="12.6821" x2="192.328" y2="-2.75646" stroke="white"/>
<line x1="185.614" y1="12.6821" x2="198.328" y2="-2.75646" stroke="white"/>
<line x1="191.614" y1="12.6821" x2="204.328" y2="-2.75646" stroke="white"/>
<line x1="197.614" y1="12.6821" x2="210.328" y2="-2.75646" stroke="white"/>
<line x1="203.614" y1="12.6821" x2="216.328" y2="-2.75646" stroke="white"/>
<line x1="209.614" y1="12.6821" x2="222.328" y2="-2.75646" stroke="white"/>
<line x1="215.614" y1="12.6821" x2="228.328" y2="-2.75646" stroke="white"/>
<line x1="221.614" y1="12.6821" x2="234.328" y2="-2.75646" stroke="white"/>
<line x1="227.614" y1="12.6821" x2="240.328" y2="-2.75646" stroke="white"/>
<line x1="233.614" y1="12.6821" x2="246.328" y2="-2.75646" stroke="white"/>
<line x1="239.614" y1="12.6821" x2="252.328" y2="-2.75646" stroke="white"/>
<line x1="245.614" y1="12.6821" x2="258.328" y2="-2.75646" stroke="white"/>
<line x1="251.614" y1="12.6821" x2="264.328" y2="-2.75646" stroke="white"/>
<line x1="257.614" y1="12.6821" x2="270.328" y2="-2.75646" stroke="white"/>
<line x1="263.614" y1="12.6821" x2="276.328" y2="-2.75646" stroke="white"/>
<line x1="269.614" y1="12.6821" x2="282.328" y2="-2.75646" stroke="white"/>
<line x1="275.614" y1="12.6821" x2="288.328" y2="-2.75646" stroke="white"/>
<line x1="281.614" y1="12.6821" x2="294.328" y2="-2.75646" stroke="white"/>
<line x1="287.614" y1="12.6821" x2="300.328" y2="-2.75646" stroke="white"/>
<line x1="293.614" y1="12.6821" x2="306.328" y2="-2.75646" stroke="white"/>
<line x1="299.614" y1="12.6821" x2="312.328" y2="-2.75646" stroke="white"/>
<line x1="305.614" y1="12.6821" x2="318.328" y2="-2.75646" stroke="white"/>
<line x1="311.614" y1="12.6821" x2="324.328" y2="-2.75646" stroke="white"/>
<line x1="317.614" y1="12.6821" x2="330.328" y2="-2.75646" stroke="white"/>
<line x1="323.614" y1="12.6821" x2="336.328" y2="-2.75646" stroke="white"/>
<line x1="329.614" y1="12.6821" x2="342.328" y2="-2.75646" stroke="white"/>
<line x1="335.614" y1="12.6821" x2="348.328" y2="-2.75646" stroke="white"/>
<line x1="341.614" y1="12.6821" x2="354.328" y2="-2.75646" stroke="white"/>
<line x1="347.614" y1="12.6821" x2="360.328" y2="-2.75646" stroke="white"/>
<line x1="353.614" y1="12.6821" x2="366.328" y2="-2.75646" stroke="white"/>
<line x1="359.614" y1="12.6821" x2="372.328" y2="-2.75646" stroke="white"/>
<line x1="365.614" y1="12.6821" x2="378.328" y2="-2.75646" stroke="white"/>
<line x1="371.614" y1="12.6821" x2="384.328" y2="-2.75646" stroke="white"/>
<line x1="377.614" y1="12.6821" x2="390.328" y2="-2.75646" stroke="white"/>
<line x1="383.614" y1="12.6821" x2="396.328" y2="-2.75646" stroke="white"/>
<line x1="389.614" y1="12.6821" x2="402.328" y2="-2.75646" stroke="white"/>
<line x1="395.614" y1="12.6821" x2="408.328" y2="-2.75646" stroke="white"/>
<line x1="401.614" y1="12.6821" x2="414.328" y2="-2.75646" stroke="white"/>
<line x1="407.614" y1="12.6821" x2="420.328" y2="-2.75646" stroke="white"/>
<line x1="413.614" y1="12.6821" x2="426.328" y2="-2.75646" stroke="white"/>
<line x1="419.614" y1="12.6821" x2="432.328" y2="-2.75646" stroke="white"/>
</g>
</svg>
